<svg xmlns="http://www.w3.org/2000/svg" width="1200" height="380" viewBox="0 0 1200 380" fill="none">
  <rect width="1200" height="380" fill="#121316"/>
  <defs>
    <filter id="cardShadow" x="-20%" y="-20%" width="140%" height="140%">
      <feDropShadow dx="0" dy="10" stdDeviation="14" flood-color="#000" flood-opacity=".28"/>
    </filter>
    <linearGradient id="lavenderFill" x1="0" y1="0" x2="1" y2="1">
      <stop offset="0" stop-color="#f2e6ff"/>
      <stop offset=".55" stop-color="#cfacd9"/>
      <stop offset="1" stop-color="#9f789b"/>
    </linearGradient>
    <linearGradient id="cyanFill" x1="0" y1="0" x2="1" y2="1">
      <stop offset="0" stop-color="#d9f7ff"/>
      <stop offset=".55" stop-color="#74d7ff"/>
      <stop offset="1" stop-color="#2fa6d7"/>
    </linearGradient>
    <linearGradient id="goldBolt" x1="0" y1="0" x2="1" y2="1">
      <stop offset="0" stop-color="#fff88a"/>
      <stop offset=".55" stop-color="#ffd83d"/>
      <stop offset="1" stop-color="#f0b400"/>
    </linearGradient>
  </defs>

  <g transform="translate(38 40)" filter="url(#cardShadow)">
    <rect width="262" height="300" rx="22" fill="#1a1c21" stroke="#2d3138"/>
    <rect x="69" y="42" width="124" height="124" rx="12" fill="#050507" stroke="#676b72"/>
    <text x="84" y="128" fill="url(#lavenderFill)" font-family="Arial Black, Arial, Helvetica, sans-serif" font-size="58" font-style="italic" font-weight="900">A</text>
    <path d="M121 130c-8 0-14-2-20-6l5-12c5 3 10 5 15 5 5 0 8-2 8-5 0-2-1-4-4-5l-8-3c-10-3-15-8-15-16 0-11 9-19 24-19 9 0 16 2 22 6l-6 11c-5-3-10-5-15-5-4 0-7 2-7 5 0 3 2 4 5 5l7 2c11 4 16 8 16 17 0 11-9 20-27 20Z" fill="url(#lavenderFill)"/>
    <path d="M147 72 135 94h9l-5 16 19-25h-10l-.9-13Z" fill="url(#goldBolt)" stroke="#fbf3a0" stroke-width="1.2" stroke-linejoin="round"/>
    <text x="158" y="128" fill="url(#cyanFill)" font-family="Arial Black, Arial, Helvetica, sans-serif" font-size="58" font-style="italic" font-weight="900">R</text>
    <text x="131" y="210" fill="#f3f5f7" font-family="Arial, Helvetica, sans-serif" font-size="22" font-weight="800" text-anchor="middle">Bolt Between S + R</text>
    <text x="131" y="240" fill="#9ca2ab" font-family="Arial, Helvetica, sans-serif" font-size="14" text-anchor="middle">cleanest, most readable</text>
  </g>

  <g transform="translate(332 40)" filter="url(#cardShadow)">
    <rect width="262" height="300" rx="22" fill="#1a1c21" stroke="#2d3138"/>
    <rect x="69" y="42" width="124" height="124" rx="12" fill="#050507" stroke="#676b72"/>
    <text x="84" y="128" fill="url(#lavenderFill)" font-family="Arial Black, Arial, Helvetica, sans-serif" font-size="58" font-style="italic" font-weight="900">A</text>
    <path d="M118 130c-9 0-16-2-22-7l6-12c5 4 10 6 16 6 5 0 8-2 8-5 0-2-1-4-4-5l-8-3c-10-3-15-8-15-16 0-11 9-19 24-19 9 0 17 2 22 6l-6 11c-5-3-10-5-15-5-4 0-7 2-7 5 0 3 2 4 5 5l8 2c10 4 15 8 15 17 0 11-9 20-27 20Z" fill="url(#lavenderFill)"/>
    <path d="M139 76 127 96h8l-4 13 16-21h-8l1-12Z" fill="#050507"/>
    <path d="M145 76 133 96h8l-4 13 16-21h-8l1-12Z" fill="url(#goldBolt)" stroke="#fbf3a0" stroke-width="1.1" stroke-linejoin="round"/>
    <path d="M156 74c10 0 19 4 24 11 3 5 5 10 5 17 0 9-4 16-10 21 5 2 9 6 12 11l-13 6c-3-5-7-9-12-11v11h-17V74h11Zm0 14v22c7-1 11-5 11-11 0-7-4-11-11-11Z" fill="url(#cyanFill)"/>
    <text x="131" y="210" fill="#f3f5f7" font-family="Arial, Helvetica, sans-serif" font-size="22" font-weight="800" text-anchor="middle">Bolt Forms R Spine</text>
    <text x="131" y="240" fill="#9ca2ab" font-family="Arial, Helvetica, sans-serif" font-size="14" text-anchor="middle">more custom, still readable</text>
  </g>

  <g transform="translate(626 40)" filter="url(#cardShadow)">
    <rect width="262" height="300" rx="22" fill="#1a1c21" stroke="#2d3138"/>
    <rect x="69" y="42" width="124" height="124" rx="12" fill="#050507" stroke="#676b72"/>
    <text x="84" y="128" fill="url(#lavenderFill)" font-family="Arial Black, Arial, Helvetica, sans-serif" font-size="58" font-style="italic" font-weight="900">A</text>
    <path d="M108 86c0-10 9-17 25-17 9 0 18 2 24 7l-6 11c-5-4-11-6-17-6-5 0-8 2-8 5 0 2 2 4 5 5l7 2c10 3 15 8 15 17 0 12-10 20-27 20-10 0-18-2-25-7l6-12c6 4 12 7 19 7 5 0 9-2 9-6 0-3-2-4-6-5l-8-2c-9-3-14-8-14-16Z" fill="url(#lavenderFill)"/>
    <path d="M137 74 126 95h8l-4 13 16-21h-8l1-13Z" fill="#050507"/>
    <path d="M138 74 127 95h8l-4 13 16-21h-8l1-13Z" fill="url(#goldBolt)" stroke="#fbf3a0" stroke-width="1.1" stroke-linejoin="round"/>
    <path d="M155 74h10c15 0 24 8 24 21 0 8-4 14-11 18 5 2 10 8 13 15l-14 7c-3-7-7-12-12-14v14h-17V74h7Zm10 14v20c5 0 8-1 10-3 2-2 3-4 3-7 0-6-4-10-13-10Z" fill="url(#cyanFill)"/>
    <text x="131" y="210" fill="#f3f5f7" font-family="Arial, Helvetica, sans-serif" font-size="22" font-weight="800" text-anchor="middle">Hidden Bolt Cutout</text>
    <text x="131" y="240" fill="#9ca2ab" font-family="Arial, Helvetica, sans-serif" font-size="14" text-anchor="middle">subtle and more polished</text>
  </g>

  <g transform="translate(920 40)" filter="url(#cardShadow)">
    <rect width="262" height="300" rx="22" fill="#1a1c21" stroke="#2d3138"/>
    <rect x="69" y="42" width="124" height="124" rx="12" fill="#050507" stroke="#676b72"/>
    <text x="84" y="128" fill="url(#lavenderFill)" font-family="Arial Black, Arial, Helvetica, sans-serif" font-size="58" font-style="italic" font-weight="900">A</text>
    <path d="M118 130c-9 0-17-2-23-7l6-12c5 4 11 6 17 6 5 0 8-2 8-5 0-2-1-4-4-5l-8-3c-10-3-15-8-15-16 0-11 9-19 24-19 9 0 17 2 22 6l-6 11c-5-3-10-5-15-5-4 0-7 2-7 5 0 3 2 4 5 5l8 2c10 4 15 8 15 17 0 11-9 20-27 20Z" fill="url(#lavenderFill)"/>
    <path d="M148 72 135 94h9l-5 16 19-25h-10V72Z" fill="url(#goldBolt)" stroke="#fbf3a0" stroke-width="1.2" stroke-linejoin="round"/>
    <path d="M159 74c15 0 26 9 26 24 0 8-4 14-10 18l11 18h-17l-9-15h-2v15h-16V74h17Zm-1 14v18h1c7 0 11-3 11-9 0-6-4-9-12-9Z" fill="url(#cyanFill)"/>
    <text x="131" y="210" fill="#f3f5f7" font-family="Arial, Helvetica, sans-serif" font-size="22" font-weight="800" text-anchor="middle">Shared SR Energy</text>
    <text x="131" y="240" fill="#9ca2ab" font-family="Arial, Helvetica, sans-serif" font-size="14" text-anchor="middle">more aggressive logo direction</text>
  </g>
</svg>
